<?xml version="1.0" encoding="utf-8"?>
<!-- Generator: Adobe Illustrator 16.0.3, SVG Export Plug-In . SVG Version: 6.00 Build 0)  -->
<!DOCTYPE svg PUBLIC "-//W3C//DTD SVG 1.1//EN" "http://www.w3.org/Graphics/SVG/1.1/DTD/svg11.dtd">
<svg version="1.1" id="Layer_1" xmlns="http://www.w3.org/2000/svg" xmlns:xlink="http://www.w3.org/1999/xlink" x="0px" y="0px"
	 width="22px" height="22px" viewBox="295 385 22 22" enable-background="new 295 385 22 22" xml:space="preserve">
<path d="M315.167,385h-18.333c-1.014,0-1.833,0.819-1.833,1.833v18.333c0,1.014,0.819,1.833,1.833,1.833h18.333
	c1.014,0,1.833-0.819,1.833-1.833v-18.333C317,385.819,316.181,385,315.167,385z M312.159,392.706l-7.66,7.695h-0.006
	c-0.097,0.097-0.361,0.314-0.665,0.314c-0.218,0-0.464-0.12-0.67-0.326l-3.208-3.208c-0.092-0.092-0.092-0.235,0-0.327l1.02-1.02
	c0.046-0.046,0.103-0.069,0.161-0.069c0.057,0,0.114,0.023,0.16,0.069l2.544,2.544l6.99-7.042c0.046-0.046,0.103-0.069,0.16-0.069
	c0.063,0,0.12,0.023,0.16,0.069l1.003,1.037C312.251,392.471,312.251,392.614,312.159,392.706L312.159,392.706z"/>
</svg>
