<?xml version="1.0" encoding="utf-8"?>
<!-- Generator: Adobe Illustrator 16.0.3, SVG Export Plug-In . SVG Version: 6.00 Build 0)  -->
<!DOCTYPE svg PUBLIC "-//W3C//DTD SVG 1.1//EN" "http://www.w3.org/Graphics/SVG/1.1/DTD/svg11.dtd">
<svg version="1.1" id="Layer_1" xmlns="http://www.w3.org/2000/svg" xmlns:xlink="http://www.w3.org/1999/xlink" x="0px" y="0px"
	 width="22px" height="22px" viewBox="295 385 22 22" enable-background="new 295 385 22 22" xml:space="preserve">
<path d="M306,385c-6.076,0-11,4.924-11,11s4.924,11,11,11s11-4.924,11-11S312.076,385,306,385z M308.787,399.982L306,397.195
	l-2.787,2.787c-0.328,0.328-0.867,0.328-1.195,0c-0.164-0.164-0.249-0.381-0.249-0.598s0.085-0.434,0.249-0.598l2.787-2.787
	l-2.787-2.787c-0.164-0.164-0.249-0.381-0.249-0.598s0.085-0.434,0.249-0.598c0.328-0.328,0.868-0.328,1.195,0l2.787,2.787
	l2.787-2.787c0.328-0.328,0.867-0.328,1.195,0c0.328,0.328,0.328,0.868,0,1.195L307.195,396l2.787,2.787
	c0.328,0.328,0.328,0.867,0,1.195C309.654,400.315,309.115,400.315,308.787,399.982L308.787,399.982z"/>
</svg>
