<?xml version="1.0" encoding="utf-8"?>
<!-- Generator: Adobe Illustrator 16.0.3, SVG Export Plug-In . SVG Version: 6.00 Build 0)  -->
<!DOCTYPE svg PUBLIC "-//W3C//DTD SVG 1.1//EN" "http://www.w3.org/Graphics/SVG/1.1/DTD/svg11.dtd">
<svg version="1.1" id="Layer_1" xmlns="http://www.w3.org/2000/svg" xmlns:xlink="http://www.w3.org/1999/xlink" x="0px" y="0px"
	 width="22px" height="22px" viewBox="295 385 22 22" enable-background="new 295 385 22 22" xml:space="preserve">
<path d="M315.167,385h-18.333c-1.008,0-1.833,0.819-1.833,1.833v18.333c0,1.014,0.825,1.833,1.833,1.833h18.333
	c1.008,0,1.833-0.819,1.833-1.833v-18.333C317,385.819,316.175,385,315.167,385z M315.391,404.938c0,0.252-0.203,0.458-0.458,0.458
	h-17.865c-0.254,0-0.458-0.206-0.458-0.458v-17.875c0-0.252,0.204-0.458,0.458-0.458h17.865c0.255,0,0.458,0.207,0.458,0.458
	V404.938L315.391,404.938z"/>
</svg>
